<svg xmlns="http://www.w3.org/2000/svg" viewBox="0 0 221.74 221.72"><defs><style>.cls-1{fill:#5f464c;}</style></defs><g id="图层_2" data-name="图层 2"><g id="图层_1-2" data-name="图层 1"><path class="cls-1" d="M44.61,42.78,40.2,30.93,60.88,22.8l6.74,17.89,64.84-6L138,17.21,159.41,24l-2.78,8.36,29.6-2.76A110.87,110.87,0,0,0,21.82,44.81Z"/><path class="cls-1" d="M128.27,191l-9.06-11.38,1.86-30.45-40,14.64L73.67,143.4l49-18.12L125,90l22.08,1.16-1.63,25.8,37.18-13.71,7.67,20.68-46.48,17L142,171.51l53.39,11.11a110.82,110.82,0,0,0-3.28-147.21l1.49,15.49-44.16,4.19-8.36,26-21.15-7,5.35-16.73-49.5,4.42,3.95,9.76L59,79.49,53,63.92,22.77,66.71,21.2,45.65a110.87,110.87,0,0,0,20.69,152l4.59-81.22-21.15,7.21L18.13,103,83.89,80l7.21,20.91-23.94,8.37H69L63.45,204l-13.77-.73a110.89,110.89,0,0,0,126.11-2.58Z"/></g></g></svg>