<?xml version="1.0" encoding="utf-8"?>
<!-- Generator: Adobe Illustrator 24.2.1, SVG Export Plug-In . SVG Version: 6.00 Build 0)  -->
<svg version="1.1" id="图层_2" xmlns="http://www.w3.org/2000/svg" xmlns:xlink="http://www.w3.org/1999/xlink" x="0px" y="0px"
	 viewBox="0 0 1024 1024" style="enable-background:new 0 0 1024 1024;" xml:space="preserve">
<style type="text/css">
	.st0{fill:#AAAAAA;}
	.st1{fill:#FFFFFF;}
</style>
<path class="st0" d="M517,1024H507C227,1024,0,797,0,517L0,507C0,227,227,0,507,0l424.4,0c51.2,0,92.6,41.5,92.6,92.6V517
	C1024,797,797,1024,517,1024z"/>
<path class="st1" d="M535.4,251.7v224.5c0,5.4-4.3,9.7-9.7,9.7h-27.4c-5.4,0-9.7-4.3-9.7-9.7V251.7c0-5.4-4.3-9.7-9.7-9.7H198.3
	c-5.4,0-9.7,4.3-9.7,9.7v520.6c0,5.4,4.3,9.7,9.7,9.7h280.6c5.4,0,9.7-4.3,9.7-9.7V547.8c0-5.4,4.3-9.7,9.7-9.7h27.4
	c5.4,0,9.7,4.3,9.7,9.7v224.5c0,5.4,4.3,9.7,9.7,9.7h280.6c5.4,0,9.7-4.3,9.7-9.7V251.7c0-5.4-4.3-9.7-9.7-9.7H545.1
	C539.8,242,535.4,246.3,535.4,251.7z"/>
</svg>
