<?xml version="1.0" encoding="utf-8"?>
<!-- Generator: Adobe Illustrator 24.2.1, SVG Export Plug-In . SVG Version: 6.00 Build 0)  -->
<svg version="1.1" id="图层_1" xmlns="http://www.w3.org/2000/svg" xmlns:xlink="http://www.w3.org/1999/xlink" x="0px" y="0px"
	 viewBox="0 0 14400 14400" style="enable-background:new 0 0 14400 14400;" xml:space="preserve">
<style type="text/css">
	.st0{fill:#5F464C;}
</style>
<g>
	<g>
		<g>
			<path class="st0" d="M6681.5,7054.12l-7.76-20.83l36.36-14.3l11.85,31.45l113.97-10.62l9.8-30.64l37.58,11.85l-4.9,14.71
				l52.03-4.86c-34.77-32.24-81.31-51.96-132.47-51.96c-64.12,0-121.01,30.97-156.52,78.77L6681.5,7054.12z"/>
			<path class="st0" d="M6828.56,7314.74l-15.93-20.02l3.27-53.51l-70.26,25.73l-13.07-35.95l86.19-31.86l4.08-62.09l38.81,2.04
				l-2.86,45.34l65.36-24.1l13.48,36.35l-81.7,29.82l-3.27,53.92l93.84,19.53c28.9-34,46.35-78.03,46.35-126.15
				c0-51.23-19.78-97.84-52.11-132.63l2.61,27.24l-77.61,7.35l-14.71,45.75l-37.17-12.25l9.4-29.41l-87.01,7.76l6.94,17.16
				l-36.36,13.89l-10.62-27.37l-53.1,4.9l-2.76-37.01c-23.43,32.17-37.27,71.78-37.27,114.62c0,61.8,28.77,116.87,73.64,152.57
				l8.06-142.77l-37.17,12.66l-12.66-36.35l115.6-40.44l12.66,36.76l-42.07,14.71h3.27l-9.8,166.66l-24.2-1.29
				c30.83,20.45,67.81,32.37,107.57,32.37c42.62,0,82.04-13.69,114.11-36.9L6828.56,7314.74z"/>
		</g>
	</g>
	<path class="st0" d="M7047.26,7164.31l310.86-22.06l2.86,38.4l-310.46,21.65L7047.26,7164.31z"/>
	<path class="st0" d="M7515.8,7085.88l23.69,253.27l-38.4,2.86L7481.49,7130l-18.79,23.69l-30.64-24.1l100.08-127.04l30.23,24.1
		L7515.8,7085.88z M7754.36,7329.75l-175.24-10.62l-14.71-30.64l155.64-222.63l-145.02-5.72l1.63-38.81l180.15,7.35l14.71,30.23
		l-155.64,223.85l123.77,7.76l15.52-86.19l37.99,6.54l-18.79,103.35L7754.36,7329.75z"/>
	<rect x="6603.08" y="7408.33" class="st0" width="382.39" height="11.75"/>
	<rect x="7410.78" y="7408.33" class="st0" width="382.39" height="11.75"/>
	<g>
		<path class="st0" d="M7074.93,7375.94l33.08-3.59l0.16-22.7l7.42,0.19l-0.47,66.64l-7.42-0.1l0.24-34.83l-33.32,3.49l-1.26,31.53
			l-7.42-0.49l2.69-66.64l7.42,0.48L7074.93,7375.94z"/>
		<path class="st0" d="M7156.57,7415.42l-8.53-6.21l-24.95,5.04l-4.34-4.75l1.9-39.19l7.42,0.49l-1.58,33.47l19.82-3.88l1.66-30.17
			l7.5,0.78l-1.74,31.72l6.71,4.95L7156.57,7415.42z"/>
		<path class="st0" d="M7205.93,7417.36l-7.9-2.72l-1.42-2.04l-32.61,6.4l-4.26-5.53l4.58-22.21l3.55-3.49h24.95l-1.66-15.13
			l-28.43,8.54l-1.82-8.83l32.45-9.8l4.58,3.88l4.42,40.26l5.53,1.94L7205.93,7417.36z M7168.34,7408.83l26.22-5.14l-0.71-6.69
			h-23.06L7168.34,7408.83z"/>
		<path class="st0" d="M7225.27,7377.11l-18.79-24.93l5.45-6.11l18.71,24.83L7225.27,7377.11z M7235.54,7420.08l-7.42-0.1
			l0.47-36.28l1.26-3.2l29.22-31.91l4.98,6.89l-27.95,30.46L7235.54,7420.08z"/>
		<path class="st0" d="M7285.99,7377.11l-18.79-24.93l5.45-6.11l18.71,24.83L7285.99,7377.11z M7296.26,7420.08l-7.42-0.1
			l0.47-36.28l1.26-3.2l29.22-31.91l4.98,6.89l-27.95,30.46L7296.26,7420.08z"/>
		<path class="st0" d="M7335.34,7417.17l-7.42-1.07l3.87-38.51l7.42,1.07L7335.34,7417.17z M7332.26,7371.96l-2.37-10.86l7.19-2.43
			l2.37,10.87L7332.26,7371.96z"/>
	</g>
</g>
</svg>
